<?xml version="1.0" standalone="no"?>
<!DOCTYPE svg PUBLIC "-//W3C//DTD SVG 20010904//EN"
 "http://www.w3.org/TR/2001/REC-SVG-20010904/DTD/svg10.dtd">
<svg version="1.0" xmlns="http://www.w3.org/2000/svg"
 width="512.000000pt" height="512.000000pt" viewBox="0 0 512.000000 512.000000"
 preserveAspectRatio="xMidYMid meet">
<metadata>
Created by potrace 1.11, written by Peter Selinger 2001-2013
</metadata>
<g transform="translate(0.000000,512.000000) scale(0.100000,-0.100000)"
fill="#000000" stroke="none">
<path d="M2097 4556 c-30 -25 -13 10 -273 -536 -113 -239 -231 -487 -261 -550
-31 -63 -72 -151 -93 -195 -44 -94 -113 -238 -202 -425 -173 -362 -171 -357
-164 -394 5 -25 16 -41 39 -55 18 -10 169 -74 337 -141 168 -67 306 -123 308
-124 1 -2 -20 -43 -46 -92 -40 -73 -117 -217 -189 -354 -18 -36 -16 -69 8
-115 12 -22 123 -229 246 -460 124 -231 240 -446 257 -479 51 -96 20 -91 496
-91 374 0 419 2 442 17 14 9 45 54 68 100 23 46 50 97 60 113 18 31 280 520
389 726 33 64 61 128 61 143 0 14 -18 59 -39 99 -161 296 -211 391 -209 393 2
1 129 52 283 113 390 156 373 147 391 184 21 39 14 65 -51 202 -86 180 -162
339 -210 440 -23 50 -68 144 -100 210 -32 66 -77 161 -100 210 -24 50 -71 149
-105 220 -34 72 -99 209 -145 305 -229 483 -252 528 -282 543 -37 19 -82 12
-113 -19 l-25 -24 -1 -341 c-1 -187 -4 -343 -7 -346 -6 -6 -607 -6 -613 0 -2
1 -4 151 -5 333 -1 181 -5 339 -10 351 -19 51 -101 74 -142 39z m998 -452 c41
-86 75 -157 75 -159 0 -1 42 -90 94 -197 124 -258 144 -300 148 -318 3 -12
-40 -14 -300 -15 -279 0 -305 -2 -317 -18 -16 -23 -22 -1 129 -503 69 -231
126 -423 126 -426 0 -3 -9 -16 -21 -29 -11 -13 -28 -33 -37 -44 -10 -11 -31
-38 -47 -60 -16 -22 -32 -42 -35 -45 -3 -3 -43 -52 -89 -110 -46 -58 -90 -110
-99 -117 -15 -13 -301 -16 -320 -4 -12 7 -322 392 -328 406 -2 6 56 210 129
455 74 244 132 453 129 463 -3 10 -13 22 -23 25 -10 4 -151 7 -314 7 -162 0
-295 1 -295 2 0 3 127 273 247 523 38 80 87 182 108 228 21 45 41 82 44 82 3
0 6 -119 5 -265 -1 -199 2 -270 12 -283 11 -16 47 -17 438 -18 329 -1 430 2
444 12 15 11 17 38 17 288 0 152 1 276 3 276 1 0 36 -70 77 -156z m-875 -791
c0 -2 -23 -79 -51 -171 -28 -92 -62 -205 -75 -252 -14 -47 -47 -158 -75 -248
-27 -90 -49 -173 -49 -185 0 -13 52 -86 125 -177 68 -85 123 -155 122 -157 -2
-1 -75 27 -163 63 l-161 65 0 91 c1 82 -2 93 -22 109 -34 28 -61 8 -98 -71
l-31 -69 -66 26 -66 26 0 152 c0 141 -2 153 -21 171 -36 33 -65 5 -123 -123
-28 -62 -55 -113 -61 -113 -5 0 -39 12 -76 26 l-67 26 70 147 c39 80 90 189
115 241 25 52 70 147 100 210 30 63 66 138 80 167 l27 52 283 0 c156 -1 283
-3 283 -6z m1346 -198 c53 -110 107 -225 121 -255 14 -30 58 -123 98 -206 l73
-152 -67 -26 c-71 -28 -91 -31 -91 -16 0 24 -104 221 -121 231 -16 8 -26 7
-45 -6 -24 -15 -24 -17 -24 -169 l0 -154 -27 -10 c-16 -6 -45 -17 -66 -26
l-37 -16 -33 67 c-36 77 -42 83 -79 83 -34 0 -45 -31 -43 -132 l2 -77 -156
-63 c-85 -35 -160 -65 -165 -67 -8 -3 50 75 110 148 82 100 135 173 136 188 0
10 -43 162 -96 338 -53 176 -108 358 -122 405 -14 47 -28 93 -30 102 -5 16 15
17 280 15 l286 -2 96 -200z m-1537 -1271 c2 -2 -1 -9 -6 -16 -6 -7 -30 -51
-55 -98 -165 -311 -160 -302 -172 -283 -7 10 -34 58 -60 106 l-47 88 44 82
c24 45 54 99 65 119 12 20 30 55 42 77 l20 41 83 -56 c45 -31 84 -58 86 -60z
m1316 -44 l87 -160 -35 -63 c-19 -34 -45 -81 -57 -105 -28 -53 -15 -71 -180
243 -29 55 -58 106 -64 114 -8 11 -7 17 7 25 10 6 48 32 85 58 37 25 68 47 69
47 1 1 41 -71 88 -159z m-1004 -162 c114 -76 212 -138 219 -138 7 0 107 63
223 141 116 77 215 141 219 142 8 2 25 -27 128 -218 20 -38 58 -109 84 -157
l47 -86 -19 -34 c-10 -18 -45 -82 -77 -143 -32 -60 -61 -114 -65 -120 -4 -5
-38 -68 -75 -140 -37 -71 -76 -145 -87 -162 l-20 -33 -154 0 -154 0 -1 108
c-1 59 0 120 1 135 2 36 -25 77 -50 77 -37 0 -51 -40 -50 -142 1 -51 1 -112 1
-135 l-1 -43 -155 0 -154 0 -35 63 c-19 34 -95 176 -170 316 l-136 254 52 96
c28 53 69 130 91 171 37 70 94 175 104 193 5 9 -14 21 234 -145z"/>
<path d="M2278 2502 c-18 -3 -38 -50 -38 -88 0 -13 11 -30 28 -42 38 -26 277
-142 293 -142 18 0 296 140 310 156 12 14 5 78 -11 104 -8 13 -53 15 -287 16
-153 0 -286 -2 -295 -4z"/>
<path d="M1897 3219 c-55 -32 -53 -125 3 -154 41 -21 75 -19 107 9 39 33 38
99 -1 133 -29 24 -78 30 -109 12z"/>
<path d="M3114 3206 c-23 -19 -28 -32 -28 -66 0 -35 6 -47 30 -66 46 -38 109
-27 135 23 17 32 18 51 2 85 -25 53 -93 65 -139 24z"/>
</g>
</svg>
